<svg xmlns="http://www.w3.org/2000/svg" viewBox="0 0 200 200" width="200" height="200">

  <circle cx="30" cy="28" r="1" fill="#e8dcc8" opacity="0.8"/>
  <circle cx="55" cy="18" r="0.6" fill="#e8dcc8" opacity="0.5"/>
  <circle cx="145" cy="25" r="1" fill="#e8dcc8" opacity="0.7"/>
  <circle cx="170" cy="38" r="0.6" fill="#e8dcc8" opacity="0.4"/>
  <circle cx="25" cy="55" r="0.7" fill="#e8dcc8" opacity="0.6"/>
  <circle cx="172" cy="65" r="0.8" fill="#e8dcc8" opacity="0.5"/>
  <circle cx="38" cy="80" r="0.5" fill="#e8dcc8" opacity="0.4"/>
  <circle cx="160" cy="90" r="0.6" fill="#e8dcc8" opacity="0.5"/>
  <circle cx="22" cy="110" r="0.8" fill="#e8dcc8" opacity="0.6"/>
  <circle cx="178" cy="115" r="0.7" fill="#e8dcc8" opacity="0.4"/>
  <circle cx="35" cy="140" r="0.5" fill="#e8dcc8" opacity="0.5"/>
  <circle cx="165" cy="140" r="0.9" fill="#e8dcc8" opacity="0.6"/>
  <circle cx="48" cy="42" r="0.8" fill="#d4956a" opacity="0.3"/>
  <circle cx="155" cy="52" r="0.7" fill="#d4956a" opacity="0.25"/>
  <circle cx="80" cy="22" r="0.5" fill="#e8dcc8" opacity="0.6"/>
  <circle cx="120" cy="20" r="0.7" fill="#e8dcc8" opacity="0.5"/>
  <circle cx="42" cy="165" r="0.6" fill="#e8dcc8" opacity="0.4"/>
  <circle cx="158" cy="168" r="0.5" fill="#e8dcc8" opacity="0.5"/>
  <circle cx="90" cy="172" r="0.7" fill="#e8dcc8" opacity="0.45"/>
  <circle cx="15" cy="155" r="0.6" fill="#e8dcc8" opacity="0.35"/>
  <circle cx="185" cy="160" r="0.8" fill="#e8dcc8" opacity="0.5"/>
  <circle cx="100" cy="12" r="0.6" fill="#e8dcc8" opacity="0.55"/>


  <ellipse cx="100" cy="100" rx="68" ry="38" fill="none" stroke="#d4956a" stroke-width="2.2" opacity="0.55" transform="rotate(-18 100 100)"/>
  <ellipse cx="100" cy="100" rx="48" ry="65" fill="none" stroke="#c0513a" stroke-width="2.2" opacity="0.45" transform="rotate(12 100 100)"/>
  <ellipse cx="100" cy="100" rx="70" ry="25" fill="none" stroke="#5b9e8f" stroke-width="1.8" opacity="0.4" transform="rotate(50 100 100)"/>


  <circle cx="155" cy="68" r="5" fill="#d4956a" opacity="0.25"/>
  <circle cx="155" cy="68" r="2.5" fill="#d4956a"/>
  <circle cx="52" cy="130" r="4" fill="#c0513a" opacity="0.25"/>
  <circle cx="52" cy="130" r="2" fill="#c0513a"/>


  <text x="100" y="103" text-anchor="middle" dominant-baseline="central" font-family="Courier New, monospace" font-size="48" font-weight="700" fill="#e8dcc8">0</text>
</svg>
